PathFileType	4	(X/Y/Z)	Patient5_TMGait_0pt45_1_right_11.trc.trc
DataRate	CameraRate	NumFrames	NumMarkers	Units	OrigDataRate	OrigDataStartFrame	OrigNumFrames
64.814814814815	64.814814814815	4	32	mm	64.814814814815	53	       141
Frame#	Time	R.ASIS			L.ASIS			Chest			R.Shoulder			Neck			L.Shoulder			L.Elbow			L.Wrist			R.Elbow			R.Wrist			L.Thigh.Superior			L.Thigh.Lateral			L.Thigh.Inferior			L.Patella			L.Shank.Superior			L.Shank.Lateral			L.Shank.Inferior			L.Heel			L.Midfoot.Lateral			L.Midfoot.Superior			L.Toe			R.Thigh.Superior			R.Thigh.Lateral			R.Thigh.Inferior			R.Patella			R.Shank.Superior			R.Shank.Lateral			R.Shank.Inferior			R.Heel			R.Midfoot.Lateral			R.Midfoot.Superior			R.Toe			
		X1	Y1	Z1	X2	Y2	Z2	X3	Y3	Z3	X4	Y4	Z4	X5	Y5	Z5	X6	Y6	Z6	X7	Y7	Z7	X8	Y8	Z8	X9	Y9	Z9	X10	Y10	Z10	X11	Y11	Z11	X12	Y12	Z12	X13	Y13	Z13	X14	Y14	Z14	X15	Y15	Z15	X16	Y16	Z16	X17	Y17	Z17	X18	Y18	Z18	X19	Y19	Z19	X20	Y20	Z20	X21	Y21	Z21	X22	Y22	Z22	X23	Y23	Z23	X24	Y24	Z24	X25	Y25	Z25	X26	Y26	Z26	X27	Y27	Z27	X28	Y28	Z28	X29	Y29	Z29	X30	Y30	Z30	X31	Y31	Z31	X32	Y32	Z32	

53	18.872285714286	1003.530500432026	958.796243127459	587.873822905141	968.666830348673	958.706674555791	351.038464446854	1090.932487630062	1417.021429047483	473.308616519335	1026.210588454473	1477.962830375604	655.762062286957	969.243938148753	1546.947962394026	481.274091623880	998.697851634992	1495.886116020530	291.839430404484	861.416584637050	1195.674985025737	174.554235603419	942.270813330129	916.166577052834	169.572750890667	980.024194131071	1166.273618259152	819.785830726480	1187.835404512695	988.969593080233	721.642328100583	1051.542758969329	793.942562395696	328.608338370362	1020.766418403196	705.395774121689	278.059219421673	1116.763779659310	683.633881846222	336.722994615984	1171.613500521445	552.244632689196	322.822132284312	1118.221517625563	440.974292859848	346.148281002132	1034.925220648297	382.914882775078	275.989439600775	1071.022530100989	323.641130377373	357.466195314817	912.955486332186	106.326795552256	367.344287109889	991.723429881734	78.751913829550	296.171708817444	1098.543822798701	129.704922241723	328.123126555640	1198.182125317938	80.514822471383	318.050132337286	979.898507010563	723.411969373755	599.561278131425	882.378203418877	658.736127473909	654.524789654910	945.742649184761	596.982619422638	572.392203614638	931.675294529254	503.676533576602	596.407132011144	879.624665685804	416.370753239560	558.216801360985	809.997265787465	350.496968861926	640.004261882205	855.453371832828	279.554734237723	552.737497037469	720.626186608784	54.196310943774	513.226225353683	798.857386211191	25.330227009373	586.451875739007	905.111900171407	86.988780898342	562.129474696281	1008.621461283793	43.985450179937	563.126945666927	
54	18.887714285714	1004.618201028916	957.874403342620	588.556764107068	972.367607110448	957.059977615689	351.108876992987	1094.922646176881	1415.248556706623	472.569737524864	1029.714835675587	1477.394904826722	654.104868097527	973.385871255523	1545.561304305676	479.311894703971	1004.214547083993	1493.429201010081	290.124052010476	867.715715048370	1192.745882411223	173.228813177156	947.591554302943	912.958919951785	169.391993135117	984.191529212399	1166.054846199642	818.827571202575	1191.523974160744	988.334466190255	720.579846553373	1052.565655131818	790.478964356972	328.498414113064	1021.264797007226	701.924102942441	278.215138323886	1116.841889574452	679.963541882654	337.553517959039	1172.674046741125	552.848003890705	324.217536815716	1127.424969980131	440.528799143073	347.747173800825	1048.908564540205	375.764945674559	277.712592933688	1091.255565073041	319.321653443930	358.648360444347	953.124597687012	89.314926785573	368.998277551499	1033.285098315572	67.718413500176	297.365782006565	1135.894932378280	127.130535448807	328.215384880600	1239.004204577206	86.038791592381	317.555581596911	978.891575149014	722.270259557878	599.794975044031	880.246019247456	658.504236594625	654.087921719292	943.364577047358	596.003233510227	572.540292711173	928.409457360154	502.785554619314	596.463930142136	875.639942358119	415.995930674032	558.038313294234	804.872061988519	350.842949404829	639.509206186225	850.290307385318	279.412367493974	552.808094353090	713.679877759877	54.236542508012	513.197068779112	791.858083690038	25.367584345333	586.421651604339	898.130425978687	86.927105059879	562.175344061582	1001.555783979572	43.961293987688	563.177826091397	
55	18.903142857143	1006.192049584896	957.029006704056	589.223057899428	976.957231510332	955.137495356204	351.130488705891	1098.793339355851	1413.585759051241	471.651571755796	1032.743039989972	1476.777810189702	652.166888424968	977.333893656811	1544.103526211580	477.054092017016	1009.751540059525	1491.060563558380	288.176687863134	874.632259800330	1189.754779382726	171.430464785205	953.524923103899	909.667275815180	169.139258857368	987.951416357402	1165.703482049449	817.539079718724	1194.927835570690	987.568478536534	719.367937434339	1053.909467546251	785.652784070544	327.959985768419	1021.217037533317	697.103457446307	278.535113054347	1116.517873551642	674.620908439945	338.284060716607	1172.487725618727	551.878862719532	326.147573162467	1134.970353506412	439.134969209114	349.867707086946	1061.436094218931	368.462040591513	279.884236270864	1109.520637237204	315.059499100970	360.331164888154	990.896304886555	74.777991694072	370.634720075431	1072.202111556039	58.521938581106	298.835123152486	1170.346294475912	125.476661495011	329.016591917191	1276.227045158065	92.055097442035	318.129821940872	978.034371875280	721.072439315303	599.815846412807	878.219140264588	658.310334637507	653.490635548881	940.976847218699	595.014328272084	572.548517298758	925.136694910432	501.874709976479	596.379431165370	871.594440009243	415.639861235451	557.732799853905	799.657577300247	351.288993934106	638.884513673658	845.095609807480	279.294769480912	552.809780952252	706.706368152628	54.261299603248	513.160831357732	784.858780065226	25.384543497239	586.375423688098	891.133309674274	86.899758952771	562.262150500784	994.486031599254	43.947195591839	563.202378124630	
56	18.918571428571	1008.211819120326	956.240173404746	589.819388913722	982.454468175415	952.988243371935	351.103861563700	1102.542493835863	1412.078819382142	470.568145923705	1035.260715673632	1476.126638944050	649.959603585728	981.053502375011	1542.599081873070	474.499681732102	1015.273211865203	1488.814700884219	286.008070752149	882.028290924910	1186.774244814620	169.158480372505	960.103059320503	906.429146650919	168.815033373658	991.201713140641	1165.241335800576	815.956525175241	1198.038766518787	986.785568086798	718.059357219846	1055.848697281389	779.786611094450	327.109067235494	1021.021108999462	691.228821497136	279.133887812443	1116.148786785638	667.997910997116	339.141544026295	1171.466094028017	549.509674805984	328.911356318846	1140.913081682830	436.809456047231	352.698314771149	1072.302342408691	361.242157403458	282.600656568115	1125.259852873950	310.823037986497	362.665446917508	1024.499622230129	63.020692737593	372.258192387700	1106.802906371710	51.139910264172	300.629002115364	1200.639429093065	124.302241762512	330.752117402885	1308.625479973673	97.596011914273	320.047821256496	977.546823744622	719.846861134837	599.678485066211	876.515419748863	658.144529774320	652.739756616151	938.924031813129	594.015512413189	572.483314748094	922.146175081331	500.921772151795	596.209919857026	867.774785329092	415.242397840538	557.324746702068	794.573022814706	351.826356550143	638.123179553727	840.041947519327	279.157951747086	552.731515407864	699.727083330360	54.301357138923	513.109393838935	777.874252531160	25.388640964714	586.307439914033	884.142655147229	86.912104534939	562.391601418814	987.434378134977	43.935685771232	563.203278614642	
